HIERARCHY
ROOT hip
{
  OFFSET 0 0 0
  CHANNELS 6 Xposition Yposition Zposition Zrotation Yrotation Xrotation
  JOINT abdomen
  {
    OFFSET 0 20.6881 -0.73152
    CHANNELS 3 Zrotation Xrotation Yrotation
    JOINT chest
    {
      OFFSET 0 11.7043 -0.48768
      CHANNELS 3 Zrotation Xrotation Yrotation
      JOINT neck
      {
        OFFSET 0 22.1894 -2.19456
        CHANNELS 3 Zrotation Xrotation Yrotation
        JOINT head
        {
          OFFSET -0.24384 7.07133 1.2192
          CHANNELS 3 Zrotation Xrotation Yrotation
          JOINT leftEye
          {
            OFFSET 4.14528 8.04674 8.04672
            CHANNELS 3 Zrotation Xrotation Yrotation
            End Site
            {
              OFFSET 1 0 0
            }
          }
          JOINT rightEye
          {
            OFFSET -3.6576 8.04674 8.04672
            CHANNELS 3 Zrotation Xrotation Yrotation
            End Site
            {
              OFFSET 1 0 0
            }
          }
        }
      }
      JOINT rCollar
      {
        OFFSET -2.68224 19.2634 -4.8768
        CHANNELS 3 Zrotation Xrotation Yrotation
        JOINT rShldr
        {
          OFFSET -8.77824 -1.95073 1.46304
          CHANNELS 3 Zrotation Xrotation Yrotation
          JOINT rForeArm
          {
            OFFSET -28.1742 -1.7115 0.48768
            CHANNELS 3 Zrotation Xrotation Yrotation
            JOINT rHand
            {
              OFFSET -22.5879 0.773209 7.07136
              CHANNELS 3 Zrotation Xrotation Yrotation
              JOINT rThumb1
              {
                OFFSET -1.2192 -0.487915 3.41376
                CHANNELS 3 Zrotation Xrotation Yrotation
                JOINT rThumb2
                {
                  OFFSET -3.37035 -0.52449 3.41376
                  CHANNELS 3 Zrotation Xrotation Yrotation
                  End Site
                  {
                    OFFSET -1.78271 -1.18214 1.43049
                  }
                }
              }
              JOINT rIndex1
              {
                OFFSET -7.75947 0.938293 5.60832
                CHANNELS 3 Zrotation Xrotation Yrotation
                JOINT rIndex2
                {
                  OFFSET -2.54057 -0.884171 1.56538
                  CHANNELS 3 Zrotation Xrotation Yrotation
                  End Site
                  {
                    OFFSET -1.62519 -0.234802 1.16502
                  }
                }
              }
              JOINT rMid1
              {
                OFFSET -8.24714 1.18213 3.41376
                CHANNELS 3 Zrotation Xrotation Yrotation
                JOINT rMid2
                {
                  OFFSET -3.10165 -0.590103 1.0647
                  CHANNELS 3 Zrotation Xrotation Yrotation
                  End Site
                  {
                    OFFSET -2.48547 -0.328903 0.83742
                  }
                }
              }
              JOINT rRing1
              {
                OFFSET -8.82822 0.546677 1.51678
                CHANNELS 3 Zrotation Xrotation Yrotation
                JOINT rRing2
                {
                  OFFSET -2.60934 -0.819778 -0.0198488
                  CHANNELS 3 Zrotation Xrotation Yrotation
                  End Site
                  {
                    OFFSET -2.33842 -0.294052 0.168128
                  }
                }
              }
              JOINT rPinky1
              {
                OFFSET -8.27202 -0.0477905 -0.4584
                CHANNELS 3 Zrotation Xrotation Yrotation
                JOINT rPinky2
                {
                  OFFSET -1.82734 -0.647385 -0.700984
                  CHANNELS 3 Zrotation Xrotation Yrotation
                  End Site
                  {
                    OFFSET -1.69225 -0.51767 -0.607171
                  }
                }
              }
            }
          }
        }
      }
      JOINT lCollar
      {
        OFFSET 2.68224 19.2634 -4.8768
        CHANNELS 3 Zrotation Xrotation Yrotation
        JOINT lShldr
        {
          OFFSET 8.77824 -1.95073 1.46304
          CHANNELS 3 Zrotation Xrotation Yrotation
          JOINT lForeArm
          {
            OFFSET 28.1742 -1.7115 0.48768
            CHANNELS 3 Zrotation Xrotation Yrotation
            JOINT lHand
            {
              OFFSET 22.5879 0.773209 7.07136
              CHANNELS 3 Zrotation Xrotation Yrotation
              JOINT lThumb1
              {
                OFFSET 1.2192 -0.487915 3.41376
                CHANNELS 3 Zrotation Xrotation Yrotation
                JOINT lThumb2
                {
                  OFFSET 3.37035 -0.52449 3.41376
                  CHANNELS 3 Zrotation Xrotation Yrotation
                  End Site
                  {
                    OFFSET 1.78271 -1.18214 1.43049
                  }
                }
              }
              JOINT lIndex1
              {
                OFFSET 7.75947 0.938293 5.60832
                CHANNELS 3 Zrotation Xrotation Yrotation
                JOINT lIndex2
                {
                  OFFSET 2.54057 -0.884171 1.56538
                  CHANNELS 3 Zrotation Xrotation Yrotation
                  End Site
                  {
                    OFFSET 1.62519 -0.234802 1.16502
                  }
                }
              }
              JOINT lMid1
              {
                OFFSET 8.24714 1.18213 3.41376
                CHANNELS 3 Zrotation Xrotation Yrotation
                JOINT lMid2
                {
                  OFFSET 3.10165 -0.590103 1.0647
                  CHANNELS 3 Zrotation Xrotation Yrotation
                  End Site
                  {
                    OFFSET 2.48547 -0.328903 0.83742
                  }
                }
              }
              JOINT lRing1
              {
                OFFSET 8.82822 0.546677 1.51678
                CHANNELS 3 Zrotation Xrotation Yrotation
                JOINT lRing2
                {
                  OFFSET 2.60934 -0.819778 -0.0198488
                  CHANNELS 3 Zrotation Xrotation Yrotation
                  End Site
                  {
                    OFFSET 2.33842 -0.294052 0.168128
                  }
                }
              }
              JOINT lPinky1
              {
                OFFSET 8.27202 -0.0477905 -0.4584
                CHANNELS 3 Zrotation Xrotation Yrotation
                JOINT lPinky2
                {
                  OFFSET 1.82734 -0.647385 -0.700984
                  CHANNELS 3 Zrotation Xrotation Yrotation
                  End Site
                  {
                    OFFSET 1.69225 -0.51767 -0.607171
                  }
                }
              }
            }
          }
        }
      }
    }
  }
  JOINT rButtock
  {
    OFFSET -8.77824 4.35084 1.2192
    CHANNELS 3 Zrotation Xrotation Yrotation
    JOINT rThigh
    {
      OFFSET 0 -1.70687 -2.19456
      CHANNELS 3 Zrotation Xrotation Yrotation
      JOINT rShin
      {
        OFFSET 0 -36.8199 0.73152
        CHANNELS 3 Zrotation Xrotation Yrotation
        JOINT rFoot
        {
          OFFSET 0.73152 -45.1104 -5.12064
          CHANNELS 3 Zrotation Xrotation Yrotation
          End Site
          {
            OFFSET -1.1221 -3.69964 12.103
          }
        }
      }
    }
  }
  JOINT lButtock
  {
    OFFSET 8.77824 4.35084 1.2192
    CHANNELS 3 Zrotation Xrotation Yrotation
    JOINT lThigh
    {
      OFFSET 0 -1.70687 -2.19456
      CHANNELS 3 Zrotation Xrotation Yrotation
      JOINT lShin
      {
        OFFSET 0 -36.8199 0.73152
        CHANNELS 3 Zrotation Xrotation Yrotation
        JOINT lFoot
        {
          OFFSET -0.73152 -45.1104 -5.12064
          CHANNELS 3 Zrotation Xrotation Yrotation
          End Site
          {
            OFFSET 1.1221 -3.69964 12.103
          }
        }
      }
    }
  }
}
MOTION
Frames:	7
Frame Time:	0.00833333
47.9018 85.2022 -80.8524 0.0 0.0 0.0 0.60224 -0.00285569 0.0171683 0.166046 -0.00431789 0.0287696 7.62328e-15 7.95139e-16 -2.48481e-17 2.27702e-14 9.54166e-15 -4.96962e-17 -0.0 0.0 0.0 -0.0 0.0 0.0 3.92482e-15 2.71776e-18 1.49089e-16 8.1493e-14 2.36057e-16 1.19271e-15 1.37216e-12 -4.10292e-13 -1.59028e-14 1.57114e-11 4.10217e-13 -6.36111e-15 3.70579e-11 -7.04737e-15 -3.49861e-14 6.39916e-11 -1.90833e-14 -7.39479e-14 3.70614e-11 -5.96354e-15 -4.13472e-14 7.73091 5.47488 0.417314 3.7057e-11 -7.15625e-15 -3.81667e-14 2.90554 0.965183 0.102902 3.70606e-11 -7.25564e-15 -3.81667e-14 10.2786 0.731801 0.0259123 3.70545e-11 -5.56597e-15 -3.18055e-14 2.22167 -0.733487 -0.20892 3.72865e-15 2.32951e-18 -1.49089e-16 7.79798e-14 2.42269e-16 -5.96354e-16 1.36958e-12 4.11484e-13 -3.18055e-15 1.57033e-11 -4.07881e-13 -9.54166e-15 3.70431e-11 2.78409e-15 -3.81667e-14 6.3982e-11 -3.18055e-15 -6.04305e-14 3.70384e-11 3.57812e-15 -2.54444e-14 -7.73091 5.47488 -0.417314 3.70442e-11 2.68359e-15 -4.13472e-14 -2.90554 0.965183 -0.102902 3.70328e-11 2.88238e-15 -3.65764e-14 -10.2786 0.731801 -0.0259123 3.70459e-11 3.18055e-15 -4.45278e-14 -2.22167 -0.733487 0.20892 -2.03217e-16 0.0 -3.88251e-19 0.985472 -4.60218 -0.0812422 -0.00202256 2.78416 -0.00804037 -0.532651 1.81804 0.0982295 2.03217e-16 0.0 3.88251e-19 -0.0701469 -2.29252 0.0218603 0.00846658 -1.39935 0.0723331 0.52616 3.69178 -0.136084
50.4516 84.3041 -82.9363 1.7183 40.3415 4.4507 -1.66329 -1.26063 -0.357915 0.863881 0.2887 -0.0571962 -4.0322 3.94493 -4.46064 7.73574 -0.161872 -8.70194 -0.0 0.0 0.0 -0.0 0.0 0.0 -3.7584e-15 4.84985e-14 1.12447e-13 21.1733 -0.724837 -1.15961 -3.4227 -1.42456 5.47936 0.0290542 3.7833 0.527532 -4.24746e-10 1.54505e-10 1.43121e-10 -7.31709e-10 2.58215e-10 2.53808e-10 -4.2474e-10 1.54506e-10 1.43111e-10 7.73091 5.47488 0.417314 -4.24746e-10 1.54504e-10 1.43117e-10 2.90554 0.965183 0.102902 -4.24742e-10 1.54504e-10 1.43117e-10 10.2786 0.731801 0.0259123 -4.24748e-10 1.54506e-10 1.43123e-10 2.22167 -0.733487 -0.20892 -3.96961e-15 4.84991e-14 1.12217e-13 2.1875 1.29107e-09 -7.13219e-11 -8.61226e-12 3.63146e-11 5.4781e-11 -3.88978e-11 1.83449e-10 5.65858e-10 -1.03567e-10 4.77013e-10 1.34769e-09 -1.79038e-10 8.23895e-10 2.32782e-09 -1.0357e-10 4.77013e-10 1.3477e-09 -7.73091 5.47488 -0.417314 -1.03566e-10 4.77013e-10 1.34769e-09 -2.90554 0.965183 -0.102902 -1.03576e-10 4.77013e-10 1.34769e-09 -10.2786 0.731801 -0.0259123 -1.03564e-10 4.77014e-10 1.34768e-09 -2.22167 -0.733487 0.20892 -2.03217e-16 0.0 -3.88251e-19 -1.02705 -6.82108 3.89454 0.00655821 7.676 0.0804608 -0.745731 -1.3262 -3.08963 2.03217e-16 0.0 3.88251e-19 0.962805 -3.29707 -3.43939 0.00320996 2.32255 0.00325001 0.505612 0.181826 0.495532
50.4713 84.3093 -82.9373 1.7811 40.4222 4.4357 -4.07497 -2.59058 -0.761879 1.60324 0.597404 -0.150019 -7.62134 8.03819 -9.2444 15.8573 -0.326943 -17.8976 -0.0 0.0 0.0 -0.0 0.0 0.0 -1.17879e-14 9.98392e-14 2.53516e-13 43.5427 -1.4938 -2.40988 -6.74587 -2.88689 11.2821 -0.0165905 7.77257 1.09163 -1.0251e-09 3.22855e-10 3.6665e-10 -1.76569e-09 5.37262e-10 6.48482e-10 -1.02509e-09 3.22856e-10 3.66636e-10 7.73091 5.47488 0.417314 -1.0251e-09 3.22854e-10 3.66645e-10 2.90554 0.965183 0.102902 -1.02509e-09 3.22855e-10 3.66646e-10 10.2786 0.731801 0.0259123 -1.0251e-09 3.22857e-10 3.66651e-10 2.22167 -0.733487 -0.20892 -1.20173e-14 9.9841e-14 2.5336e-13 4.5 2.65591e-09 -1.46719e-10 -1.91706e-11 7.26403e-11 1.23759e-10 -9.44691e-11 3.66324e-10 1.27958e-09 -2.47508e-10 9.52652e-10 3.04736e-09 -4.27803e-10 1.64537e-09 5.26362e-09 -2.47509e-10 9.52652e-10 3.04737e-09 -7.73091 5.47488 -0.417314 -2.47507e-10 9.52653e-10 3.04736e-09 -2.90554 0.965183 -0.102902 -2.47517e-10 9.52652e-10 3.04735e-09 -10.2786 0.731801 -0.0259123 -2.47505e-10 9.52654e-10 3.04735e-09 -2.22167 -0.733487 0.20892 -2.03217e-16 0.0 -3.88251e-19 -2.81589 -9.10796 8.14492 -0.00118917 12.8459 0.176917 -1.35158 -4.62214 -6.48079 2.03217e-16 0.0 3.88251e-19 1.92432 -4.34114 -7.10604 0.00744747 6.259 -0.0702003 0.567479 -3.52904 1.16031
50.5163 84.3149 -82.9576 2.0318 40.4814 4.5307 -6.24385 -3.77554 -1.11023 2.26219 0.87473 -0.229152 -10.2404 11.5454 -13.6311 23.0654 -0.441153 -26.1065 -0.0 0.0 0.0 -0.0 0.0 0.0 -1.91248e-14 1.4549e-13 3.37041e-13 63.4319 -2.17095 -3.48105 -9.46138 -4.1176 16.4767 -0.125356 11.346 1.61063 -1.34835e-09 4.63528e-10 4.29432e-10 -2.32311e-09 7.74683e-10 7.61572e-10 -1.34834e-09 4.63528e-10 4.29415e-10 7.73091 5.47488 0.417314 -1.34835e-09 4.63526e-10 4.29427e-10 2.90554 0.965183 0.102902 -1.34835e-09 4.63528e-10 4.29428e-10 10.2786 0.731801 0.0259123 -1.34835e-09 4.6353e-10 4.29432e-10 2.22167 -0.733487 -0.20892 -1.93661e-14 1.45493e-13 3.3695e-13 6.5625 3.8732e-09 -2.13965e-10 -2.85759e-11 1.08121e-10 1.64349e-10 -1.481e-10 5.51162e-10 1.69759e-09 -3.84786e-10 1.43103e-09 4.04315e-09 -6.65078e-10 2.47169e-09 6.98358e-09 -3.84786e-10 1.43103e-09 4.04316e-09 -7.73091 5.47488 -0.417314 -3.84786e-10 1.43103e-09 4.04315e-09 -2.90554 0.965183 -0.102902 -3.84795e-10 1.43103e-09 4.04314e-09 -10.2786 0.731801 -0.0259123 -3.84783e-10 1.43104e-09 4.04314e-09 -2.22167 -0.733487 0.20892 -2.03217e-16 0.0 -3.88251e-19 -4.121 -11.0653 11.9889 -0.0235496 17.4595 0.26761 -2.22348 -7.51618 -9.54553 2.03217e-16 0.0 3.88251e-19 2.6659 -5.23718 -10.3886 0.0198412 9.76634 -0.136865 0.697562 -6.83485 1.77078
50.6025 84.3197 -82.9801 2.3724 40.4834 4.7108 -7.76929 -4.59873 -1.31741 2.71819 1.07362 -0.274039 -11.7502 13.8631 -16.7868 28.096 -0.474595 -31.8479 -0.0 0.0 0.0 -0.0 0.0 0.0 -2.47301e-14 1.76916e-13 2.76708e-13 77.1862 -2.62229 -4.10221 -11.222 -4.91778 20.1141 -0.242401 13.8836 1.99072 -9.7887e-10 5.35004e-10 9.03468e-11 -1.68914e-09 9.08039e-10 1.70701e-10 -9.78859e-10 5.35005e-10 9.03278e-11 7.73091 5.47488 0.417314 -9.78869e-10 5.35003e-10 9.03405e-11 2.90554 0.965183 0.102902 -9.78863e-10 5.35004e-10 9.03421e-11 10.2786 0.731801 0.0259123 -9.78867e-10 5.35006e-10 9.03468e-11 2.22167 -0.733487 -0.20892 -2.49677e-14 1.76919e-13 2.76659e-13 8.0 4.72161e-09 -2.60833e-10 -3.50988e-11 1.41488e-10 1.33971e-10 -1.96881e-10 7.40905e-10 1.37636e-09 -5.05408e-10 1.91627e-09 3.27924e-09 -8.73626e-10 3.31013e-09 5.66395e-09 -5.05407e-10 1.91627e-09 3.27926e-09 -7.73091 5.47488 -0.417314 -5.05408e-10 1.91627e-09 3.27925e-09 -2.90554 0.965183 -0.102902 -5.05416e-10 1.91627e-09 3.27924e-09 -10.2786 0.731801 -0.0259123 -5.05404e-10 1.91628e-09 3.27924e-09 -2.22167 -0.733487 0.20892 -2.03217e-16 0.0 -3.88251e-19 -4.87456 -12.3677 14.699 -0.0484977 20.6827 0.334755 -3.01803 -9.50386 -11.7096 2.03217e-16 0.0 3.88251e-19 3.11444 -5.82297 -12.6889 0.0333555 12.201 -0.184319 0.83622 -9.13141 2.23033
50.6368 84.32 -82.9793 2.4877 40.4666 4.8121 -8.41261 -4.91039 -1.32368 2.88986 1.16799 -0.270229 -12.3143 14.7037 -18.062 30.1556 -0.408841 -34.1411 -0.0 0.0 0.0 -0.0 0.0 0.0 -2.66614e-14 1.89425e-13 -3.46759e-14 82.3864 -2.76589 -4.09456 -11.8781 -5.21231 21.5331 -0.30243 14.992 2.16019 6.20798e-10 5.4718e-10 -1.02103e-09 1.05986e-09 9.66967e-10 -1.77162e-09 6.2081e-10 5.4718e-10 -1.02105e-09 7.73091 5.47488 0.417314 6.20798e-10 5.47178e-10 -1.02103e-09 2.90554 0.965183 0.102902 6.20806e-10 5.4718e-10 -1.02103e-09 10.2786 0.731801 0.0259123 6.20799e-10 5.47181e-10 -1.02103e-09 2.22167 -0.733487 -0.20892 -2.68697e-14 1.89426e-13 -3.47124e-14 8.5625 5.0536e-09 -2.79173e-10 -3.73268e-11 1.76854e-10 -2.27228e-11 -2.35611e-10 9.68631e-10 -2.62596e-10 -5.95199e-10 2.48983e-09 -6.21392e-10 -1.02903e-09 4.30166e-09 -1.0741e-09 -5.95199e-10 2.48983e-09 -6.21377e-10 -7.73091 5.47488 -0.417314 -5.95199e-10 2.48983e-09 -6.21383e-10 -2.90554 0.965183 -0.102902 -5.95208e-10 2.48983e-09 -6.21392e-10 -10.2786 0.731801 -0.0259123 -5.95195e-10 2.48984e-09 -6.21392e-10 -2.22167 -0.733487 0.20892 -2.03217e-16 0.0 -3.88251e-19 -5.18149 -12.8574 15.7385 -0.0608281 21.9766 0.362987 -3.37366 -10.3172 -12.5344 2.03217e-16 0.0 3.88251e-19 3.23393 -5.98467 -13.6041 0.039449 13.1043 -0.202446 0.912764 -9.99826 2.46749
50.657 84.3207 -82.9639 2.5596 40.3737 4.8605 -8.42137 -4.857 -1.18618 2.85822 1.18745 -0.231664 -12.3385 14.5469 -17.9504 30.0952 -0.278467 -33.9711 -0.0 0.0 0.0 -0.0 0.0 0.0 -2.6028e-14 1.88373e-13 -5.23018e-13 81.48 -2.68968 -3.63733 -11.7992 -5.17542 21.3622 -0.304052 15.0796 2.17311 3.08677e-09 5.15208e-10 -2.67405e-09 5.2983e-09 9.69338e-10 -4.66185e-09 3.08679e-09 5.15208e-10 -2.67407e-09 7.73091 5.47488 0.417314 3.08677e-09 5.15208e-10 -2.67406e-09 2.90554 0.965183 0.102902 3.08678e-09 5.15208e-10 -2.67405e-09 10.2786 0.731801 0.0259123 3.08677e-09 5.15209e-10 -2.67405e-09 2.22167 -0.733487 -0.20892 -2.61888e-14 1.88372e-13 -5.23062e-13 8.5 5.01671e-09 -2.77135e-10 -3.64995e-11 2.13412e-10 -2.68359e-10 -2.67316e-10 1.222e-09 -2.82932e-09 -6.63327e-10 3.12273e-09 -6.7305e-09 -1.1471e-09 5.39606e-09 -1.16271e-08 -6.63329e-10 3.12273e-09 -6.73048e-09 -7.73091 5.47488 -0.417314 -6.63326e-10 3.12273e-09 -6.73049e-09 -2.90554 0.965183 -0.102902 -6.63335e-10 3.12273e-09 -6.73049e-09 -10.2786 0.731801 -0.0259123 -6.63323e-10 3.12274e-09 -6.73049e-09 -2.22167 -0.733487 0.20892 -2.03217e-16 0.0 -3.88251e-19 -5.2336 -12.7963 15.5686 -0.0600042 21.8915 0.36147 -3.3377 -10.3121 -12.3842 2.03217e-16 0.0 3.88251e-19 3.14422 -5.85474 -13.5269 0.0381694 12.9152 -0.19907 0.925662 -9.84578 2.54104
